#N canvas 651 173 1920 976 12;
#X obj 672 444 tgl 19 0 empty empty empty 0 -10 0 12 #fcfcfc #000000 #000000 0 1;
#X obj 674 476 bng 19 250 50 0 empty empty empty 0 -10 0 12 #00faff #000000 #000000;
#X msg 331 460 0, f 8;
#X obj 580 550 float 0;
#X obj 674 548 + 1;
#X floatatom 580 574 5 0 0 0 - - - 0;
#X obj 580 597 / 498;
#X floatatom 580 621 5 0 0 0 - - - 0;
#X text 842 212 For some reason \, PD's float counter is broken and outputs in increments of 498 In order to correct it I've divided it by 498 to get a regular counter;
#X obj 328 407 sel 0;
#X obj 328 431 bng 19 250 50 0 empty empty empty 0 -10 0 12 #fcfcfc #000000 #000000;
#X obj 580 644 % 8;
#X obj 580 668 + 1;
#X floatatom 562 477 5 0 0 0 - - - 0;
#X obj 738 743 outlet, f 7;
#X floatatom 618 477 5 0 0 0 - - - 0;
#X obj 565 446 hsl 90 19 50 800 1 0 empty empty empty -2 -10 0 12 #c6ffc7 #0f4710 #00ff04 0 1;
#X text 657 424 on/off;
#X obj 654 599 int;
#X obj 584 370 metro 100;
#X obj 705 446 markov;
#X obj 1010 447 vradio 19 1 0 2 empty empty empty 0 -10 0 12 #ff0400 #000000 #000000 0;
#X floatatom 1082 477 5 0 0 0 - - - 0;
#X obj 1082 500 tgl 19 0 empty empty empty 0 -10 0 12 #fcfcfc #000000 #000000 0 1;
#X obj 1026 576 sel 0;
#X obj 1128 571 sel 1;
#X obj 679 670 spigot;
#X obj 1026 644 tgl 19 0 empty empty empty 0 -10 0 12 #fcfcfc #000000 #000000 0 1;
#X obj 1137 650 tgl 19 0 empty empty empty 0 -10 0 12 #fcfcfc #000000 #000000 0 1;
#X msg 1044 608 0, f 4;
#X msg 1096 608 0, f 4;
#X floatatom 733 712 5 0 0 0 - - - 0;
#X obj 786 667 spigot;
#X floatatom 785 602 5 0 0 0 - - - 0;
#X text 907 468 Markov chain;
#X text 907 449 Manual ver.;
#X connect 0 0 9 0;
#X connect 0 0 19 0;
#X connect 1 0 3 0;
#X connect 2 0 3 1;
#X connect 2 0 7 0;
#X connect 3 0 4 0;
#X connect 3 0 5 0;
#X connect 4 0 3 0;
#X connect 5 0 6 0;
#X connect 6 0 7 0;
#X connect 7 0 11 0;
#X connect 9 0 10 0;
#X connect 10 0 2 0;
#X connect 11 0 12 0;
#X connect 12 0 13 0;
#X connect 13 0 26 0;
#X connect 15 0 19 1;
#X connect 16 0 18 0;
#X connect 18 0 15 0;
#X connect 19 0 1 0;
#X connect 19 0 20 0;
#X connect 20 0 33 0;
#X connect 21 0 22 0;
#X connect 22 0 23 0;
#X connect 23 0 24 0;
#X connect 23 0 25 0;
#X connect 24 0 27 0;
#X connect 24 0 29 0;
#X connect 25 0 28 0;
#X connect 25 0 30 0;
#X connect 26 0 31 0;
#X connect 27 0 26 1;
#X connect 28 0 32 1;
#X connect 29 0 28 0;
#X connect 30 0 27 0;
#X connect 31 0 14 0;
#X connect 32 0 31 0;
#X connect 33 0 32 0;
#X coords 0 -1 1 1 485 120 1 550 405;
