#N canvas 64 0 1920 966 12;
#X obj 171 377 tgl 19 0 empty empty empty 0 -10 0 12 #fcfcfc #000000 #000000 0 1;
#X floatatom 1267 264 5 0 0 0 - - - 0;
#X obj 1267 287 sel 1 2 3 4 5 6 7 8;
#X obj 1232 442 bng 19 250 50 0 empty empty empty 0 -10 0 12 #fcfcfc #000000 #000000;
#X obj 1260 437 bng 19 250 50 0 empty empty empty 0 -10 0 12 #fcfcfc #000000 #000000;
#X obj 1295 447 bng 19 250 50 0 empty empty empty 0 -10 0 12 #fcfcfc #000000 #000000;
#X obj 1331 450 bng 19 250 50 0 empty empty empty 0 -10 0 12 #fcfcfc #000000 #000000;
#X obj 1361 450 bng 19 250 50 0 empty empty empty 0 -10 0 12 #fcfcfc #000000 #000000;
#X obj 1461 449 bng 19 250 50 0 empty empty empty 0 -10 0 12 #fcfcfc #000000 #000000;
#X obj 1516 455 bng 19 250 50 0 empty empty empty 0 -10 0 12 #fcfcfc #000000 #000000;
#X obj 1571 458 bng 19 250 50 0 empty empty empty 0 -10 0 12 #fcfcfc #000000 #000000;
#X obj 1228 499 s one;
#X obj 1282 500 s two;
#X obj 1338 502 s three;
#X obj 1443 502 s four;
#X obj 1503 502 s five;
#X obj 1571 503 s six;
#X obj 1626 503 s seven;
#X obj 1693 504 s eight;
#X obj 408 503 r one;
#X obj 408 527 bng 19 250 50 0 empty empty empty 0 -10 0 12 #fcfcfc #000000 #000000;
#X obj 408 551 spigot;
#X obj 171 399 bng 19 250 50 0 empty empty empty 0 -10 0 12 #fcfcfc #000000 #000000;
#X obj 192 377 tgl 19 0 empty empty empty 0 -10 0 12 #fcfcfc #000000 #000000 0 1;
#X obj 478 525 bng 19 250 50 0 empty empty empty 0 -10 0 12 #fcfcfc #000000 #000000;
#X obj 478 549 spigot;
#X obj 192 399 bng 19 250 50 0 empty empty empty 0 -10 0 12 #fcfcfc #000000 #000000;
#X obj 478 501 r two;
#X obj 213 377 tgl 19 0 empty empty empty 0 -10 0 12 #fcfcfc #000000 #000000 0 1;
#X obj 550 523 bng 19 250 50 0 empty empty empty 0 -10 0 12 #fcfcfc #000000 #000000;
#X obj 550 547 spigot;
#X obj 213 399 bng 19 250 50 0 empty empty empty 0 -10 0 12 #fcfcfc #000000 #000000;
#X obj 550 499 r three;
#X obj 234 377 tgl 19 0 empty empty empty 0 -10 0 12 #fcfcfc #000000 #000000 0 1;
#X obj 621 523 bng 19 250 50 0 empty empty empty 0 -10 0 12 #fcfcfc #000000 #000000;
#X obj 621 547 spigot;
#X obj 234 399 bng 19 250 50 0 empty empty empty 0 -10 0 12 #fcfcfc #000000 #000000;
#X obj 621 499 r four;
#X obj 256 377 tgl 19 0 empty empty empty 0 -10 0 12 #fcfcfc #000000 #000000 0 1;
#X obj 690 522 bng 19 250 50 0 empty empty empty 0 -10 0 12 #fcfcfc #000000 #000000;
#X obj 690 546 spigot;
#X obj 256 399 bng 19 250 50 0 empty empty empty 0 -10 0 12 #fcfcfc #000000 #000000;
#X obj 690 498 r five;
#X obj 277 377 tgl 19 0 empty empty empty 0 -10 0 12 #fcfcfc #000000 #000000 0 1;
#X obj 766 520 bng 19 250 50 0 empty empty empty 0 -10 0 12 #fcfcfc #000000 #000000;
#X obj 766 544 spigot;
#X obj 277 399 bng 19 250 50 0 empty empty empty 0 -10 0 12 #fcfcfc #000000 #000000;
#X obj 766 496 r six;
#X obj 298 377 tgl 19 0 empty empty empty 0 -10 0 12 #fcfcfc #000000 #000000 0 1;
#X obj 840 522 bng 19 250 50 0 empty empty empty 0 -10 0 12 #fcfcfc #000000 #000000;
#X obj 840 546 spigot;
#X obj 298 399 bng 19 250 50 0 empty empty empty 0 -10 0 12 #fcfcfc #000000 #000000;
#X obj 840 498 r seven;
#X obj 319 377 tgl 19 0 empty empty empty 0 -10 0 12 #fcfcfc #000000 #000000 0 1;
#X obj 910 520 bng 19 250 50 0 empty empty empty 0 -10 0 12 #fcfcfc #000000 #000000;
#X obj 910 544 spigot;
#X obj 319 399 bng 19 250 50 0 empty empty empty 0 -10 0 12 #fcfcfc #000000 #000000;
#X obj 910 496 r eight;
#X obj 530 989 /~ 5;
#X obj 1269 231 inlet;
#X text 175 357 1;
#X text 195 357 2;
#X text 217 357 3;
#X text 237 356 4;
#X text 261 356 5;
#X text 281 356 6;
#X text 302 357 7;
#X text 322 356 8;
#X obj 675 782 line~;
#X obj 675 806 pow~ 4;
#X obj 674 866 *~;
#X obj 757 849 hip~ 8000;
#X obj 753 873 hip~ 8000;
#X obj 757 723 phasor~ 350;
#X obj 757 747 *~ 2;
#X obj 757 771 -~ 1;
#X obj 882 746 *~ 2;
#X obj 881 769 -~ 1;
#X obj 882 722 phasor~ 800;
#X obj 756 818 +~;
#X obj 922 801 noise~;
#X obj 922 825 /~ 5;
#X msg 676 759 1 \, 0 150;
#X obj 686 925 *~ 3;
#X obj 526 1023 outlet~;
#X obj 650 642 send hihats;
#X obj 651 676 receive hihats;
#X connect 0 0 21 1;
#X connect 1 0 2 0;
#X connect 2 0 3 0;
#X connect 2 1 4 0;
#X connect 2 2 5 0;
#X connect 2 3 6 0;
#X connect 2 4 7 0;
#X connect 2 5 8 0;
#X connect 2 6 9 0;
#X connect 2 7 10 0;
#X connect 3 0 11 0;
#X connect 4 0 12 0;
#X connect 5 0 13 0;
#X connect 6 0 14 0;
#X connect 7 0 15 0;
#X connect 8 0 16 0;
#X connect 9 0 17 0;
#X connect 10 0 18 0;
#X connect 19 0 20 0;
#X connect 20 0 21 0;
#X connect 21 0 22 0;
#X connect 22 0 85 0;
#X connect 23 0 25 1;
#X connect 24 0 25 0;
#X connect 25 0 26 0;
#X connect 26 0 85 0;
#X connect 27 0 24 0;
#X connect 28 0 30 1;
#X connect 29 0 30 0;
#X connect 30 0 31 0;
#X connect 31 0 85 0;
#X connect 32 0 29 0;
#X connect 33 0 35 1;
#X connect 34 0 35 0;
#X connect 35 0 36 0;
#X connect 36 0 85 0;
#X connect 37 0 34 0;
#X connect 38 0 40 1;
#X connect 39 0 40 0;
#X connect 40 0 41 0;
#X connect 41 0 85 0;
#X connect 42 0 39 0;
#X connect 43 0 45 1;
#X connect 44 0 45 0;
#X connect 45 0 46 0;
#X connect 46 0 85 0;
#X connect 47 0 44 0;
#X connect 48 0 50 1;
#X connect 49 0 50 0;
#X connect 50 0 51 0;
#X connect 51 0 85 0;
#X connect 52 0 49 0;
#X connect 53 0 55 1;
#X connect 54 0 55 0;
#X connect 55 0 56 0;
#X connect 56 0 85 0;
#X connect 57 0 54 0;
#X connect 58 0 84 0;
#X connect 59 0 1 0;
#X connect 68 0 69 0;
#X connect 69 0 70 0;
#X connect 70 0 83 0;
#X connect 71 0 72 0;
#X connect 72 0 70 1;
#X connect 73 0 74 0;
#X connect 74 0 75 0;
#X connect 75 0 79 0;
#X connect 76 0 77 0;
#X connect 77 0 79 0;
#X connect 78 0 76 0;
#X connect 79 0 71 0;
#X connect 80 0 81 0;
#X connect 81 0 71 0;
#X connect 82 0 68 0;
#X connect 83 0 58 0;
#X connect 86 0 82 0;
#X coords 0 -1 1 1 215 85 1 130 340;
