#N canvas -8 0 1920 976 12;
#X obj 171 377 tgl 19 0 empty empty empty 0 -10 0 12 #fcfcfc #000000 #000000 0 1;
#X floatatom 170 521 5 0 0 0 - - - 0;
#X obj 170 544 sel 1 2 3 4 5 6 7 8;
#X obj 135 699 bng 19 250 50 0 empty empty empty 0 -10 0 12 #fcfcfc #000000 #000000;
#X obj 163 694 bng 19 250 50 0 empty empty empty 0 -10 0 12 #fcfcfc #000000 #000000;
#X obj 198 704 bng 19 250 50 0 empty empty empty 0 -10 0 12 #fcfcfc #000000 #000000;
#X obj 234 707 bng 19 250 50 0 empty empty empty 0 -10 0 12 #fcfcfc #000000 #000000;
#X obj 264 707 bng 19 250 50 0 empty empty empty 0 -10 0 12 #fcfcfc #000000 #000000;
#X obj 330 708 bng 19 250 50 0 empty empty empty 0 -10 0 12 #fcfcfc #000000 #000000;
#X obj 385 714 bng 19 250 50 0 empty empty empty 0 -10 0 12 #fcfcfc #000000 #000000;
#X obj 440 717 bng 19 250 50 0 empty empty empty 0 -10 0 12 #fcfcfc #000000 #000000;
#X obj 131 756 s one;
#X obj 185 757 s two;
#X obj 241 759 s three;
#X obj 312 761 s four;
#X obj 372 761 s five;
#X obj 440 762 s six;
#X obj 495 762 s seven;
#X obj 562 763 s eight;
#X obj 408 503 r one;
#X obj 408 527 bng 19 250 50 0 empty empty empty 0 -10 0 12 #fcfcfc #000000 #000000;
#X obj 408 551 spigot;
#X obj 171 399 bng 19 250 50 0 empty empty empty 0 -10 0 12 #fcfcfc #000000 #000000;
#X obj 192 377 tgl 19 0 empty empty empty 0 -10 0 12 #fcfcfc #000000 #000000 0 1;
#X obj 478 525 bng 19 250 50 0 empty empty empty 0 -10 0 12 #fcfcfc #000000 #000000;
#X obj 478 549 spigot;
#X obj 192 399 bng 19 250 50 0 empty empty empty 0 -10 0 12 #fcfcfc #000000 #000000;
#X obj 478 501 r two;
#X obj 213 377 tgl 19 0 empty empty empty 0 -10 0 12 #fcfcfc #000000 #000000 0 1;
#X obj 550 523 bng 19 250 50 0 empty empty empty 0 -10 0 12 #fcfcfc #000000 #000000;
#X obj 550 547 spigot;
#X obj 213 399 bng 19 250 50 0 empty empty empty 0 -10 0 12 #fcfcfc #000000 #000000;
#X obj 550 499 r three;
#X obj 234 377 tgl 19 0 empty empty empty 0 -10 0 12 #fcfcfc #000000 #000000 0 1;
#X obj 621 523 bng 19 250 50 0 empty empty empty 0 -10 0 12 #fcfcfc #000000 #000000;
#X obj 621 547 spigot;
#X obj 234 399 bng 19 250 50 0 empty empty empty 0 -10 0 12 #fcfcfc #000000 #000000;
#X obj 621 499 r four;
#X obj 256 377 tgl 19 0 empty empty empty 0 -10 0 12 #fcfcfc #000000 #000000 0 1;
#X obj 690 522 bng 19 250 50 0 empty empty empty 0 -10 0 12 #fcfcfc #000000 #000000;
#X obj 690 546 spigot;
#X obj 256 399 bng 19 250 50 0 empty empty empty 0 -10 0 12 #fcfcfc #000000 #000000;
#X obj 690 498 r five;
#X obj 277 377 tgl 19 0 empty empty empty 0 -10 0 12 #fcfcfc #000000 #000000 0 1;
#X obj 766 520 bng 19 250 50 0 empty empty empty 0 -10 0 12 #fcfcfc #000000 #000000;
#X obj 766 544 spigot;
#X obj 277 399 bng 19 250 50 0 empty empty empty 0 -10 0 12 #fcfcfc #000000 #000000;
#X obj 766 496 r six;
#X obj 298 377 tgl 19 0 empty empty empty 0 -10 0 12 #fcfcfc #000000 #000000 0 1;
#X obj 840 522 bng 19 250 50 0 empty empty empty 0 -10 0 12 #fcfcfc #000000 #000000;
#X obj 840 546 spigot;
#X obj 298 399 bng 19 250 50 0 empty empty empty 0 -10 0 12 #fcfcfc #000000 #000000;
#X obj 840 498 r seven;
#X obj 319 377 tgl 19 0 empty empty empty 0 -10 0 12 #fcfcfc #000000 #000000 0 1;
#X obj 910 520 bng 19 250 50 0 empty empty empty 0 -10 0 12 #fcfcfc #000000 #000000;
#X obj 910 544 spigot;
#X obj 319 399 bng 19 250 50 0 empty empty empty 0 -10 0 12 #fcfcfc #000000 #000000;
#X obj 910 496 r eight;
#X obj 650 642 send kick;
#X obj 651 676 receive kick;
#X obj 856 694 line~, f 6;
#X obj 856 718 sqrt~;
#X obj 856 742 *~ 20;
#X obj 855 800 cos~;
#X msg 856 670 0 \, 1 200;
#X obj 855 771 -~ 0.1255;
#X obj 855 824 /~ 5;
#X obj 172 488 inlet;
#X text 175 357 1;
#X text 195 357 2;
#X text 217 357 3;
#X text 237 356 4;
#X text 261 356 5;
#X text 281 356 6;
#X text 302 357 7;
#X text 322 356 8;
#X obj 857 868 outlet~;
#X connect 0 0 21 1;
#X connect 1 0 2 0;
#X connect 2 0 3 0;
#X connect 2 1 4 0;
#X connect 2 2 5 0;
#X connect 2 3 6 0;
#X connect 2 4 7 0;
#X connect 2 5 8 0;
#X connect 2 6 9 0;
#X connect 2 7 10 0;
#X connect 3 0 11 0;
#X connect 4 0 12 0;
#X connect 5 0 13 0;
#X connect 6 0 14 0;
#X connect 7 0 15 0;
#X connect 8 0 16 0;
#X connect 9 0 17 0;
#X connect 10 0 18 0;
#X connect 19 0 20 0;
#X connect 20 0 21 0;
#X connect 21 0 22 0;
#X connect 22 0 58 0;
#X connect 23 0 25 1;
#X connect 24 0 25 0;
#X connect 25 0 26 0;
#X connect 26 0 58 0;
#X connect 27 0 24 0;
#X connect 28 0 30 1;
#X connect 29 0 30 0;
#X connect 30 0 31 0;
#X connect 31 0 58 0;
#X connect 32 0 29 0;
#X connect 33 0 35 1;
#X connect 34 0 35 0;
#X connect 35 0 36 0;
#X connect 36 0 58 0;
#X connect 37 0 34 0;
#X connect 38 0 40 1;
#X connect 39 0 40 0;
#X connect 40 0 41 0;
#X connect 41 0 58 0;
#X connect 42 0 39 0;
#X connect 43 0 45 1;
#X connect 44 0 45 0;
#X connect 45 0 46 0;
#X connect 46 0 58 0;
#X connect 47 0 44 0;
#X connect 48 0 50 1;
#X connect 49 0 50 0;
#X connect 50 0 51 0;
#X connect 51 0 58 0;
#X connect 52 0 49 0;
#X connect 53 0 55 1;
#X connect 54 0 55 0;
#X connect 55 0 56 0;
#X connect 56 0 58 0;
#X connect 57 0 54 0;
#X connect 59 0 64 0;
#X connect 60 0 61 0;
#X connect 61 0 62 0;
#X connect 62 0 65 0;
#X connect 63 0 66 0;
#X connect 64 0 60 0;
#X connect 65 0 63 0;
#X connect 66 0 76 0;
#X connect 67 0 1 0;
#X coords 0 -1 1 1 215 85 1 130 340;
