#N canvas 1023 279 1920 976 12;
#X obj 111 130 bng 19 250 50 0 empty empty empty 0 -10 0 12 #fcfcfc #000000 #000000;
#X obj 208 67 f 1;
#X obj 209 92 sel 1 2 3 4 5 6 7 8;
#X obj 157 336 bng 19 250 50 0 empty empty empty 0 -10 0 12 #fcfcfc #000000 #000000;
#X obj 287 334 bng 19 250 50 0 empty empty empty 0 -10 0 12 #fcfcfc #000000 #000000;
#X obj 446 331 bng 19 250 50 0 empty empty empty 0 -10 0 12 #fcfcfc #000000 #000000;
#X obj 557 332 bng 19 250 50 0 empty empty empty 0 -10 0 12 #fcfcfc #000000 #000000;
#X obj 654 333 bng 19 250 50 0 empty empty empty 0 -10 0 12 #fcfcfc #000000 #000000;
#X obj 760 333 bng 19 250 50 0 empty empty empty 0 -10 0 12 #fcfcfc #000000 #000000;
#X obj 847 329 bng 19 250 50 0 empty empty empty 0 -10 0 12 #fcfcfc #000000 #000000;
#X obj 934 333 bng 19 250 50 0 empty empty empty 0 -10 0 12 #fcfcfc #000000 #000000;
#N canvas -219 126 1920 976 markov 0;
#X obj 55 55 inlet;
#X obj 55 79 bng 19 250 50 0 empty empty empty 0 -10 0 12 #fcfcfc #000000 #000000;
#X obj 54 108 random 100;
#X msg 57 544 1;
#X msg 118 559 2;
#X msg 181 578 3;
#X msg 243 588 4;
#X msg 303 604 5;
#X msg 357 618 6, f 2;
#X msg 410 636 7;
#X msg 455 651 8;
#X obj 54 171 bng 19 250 50 0 empty empty empty 0 -10 0 12 #fcfcfc #000000 #000000;
#X obj 115 208 bng 19 250 50 0 empty empty empty 0 -10 0 12 #fcfcfc #000000 #000000;
#X obj 189 254 bng 19 250 50 0 empty empty empty 0 -10 0 12 #fcfcfc #000000 #000000;
#X obj 244 285 bng 19 250 50 0 empty empty empty 0 -10 0 12 #fcfcfc #000000 #000000;
#X obj 298 325 bng 19 250 50 0 empty empty empty 0 -10 0 12 #fcfcfc #000000 #000000;
#X obj 368 384 bng 19 250 50 0 empty empty empty 0 -10 0 12 #fcfcfc #000000 #000000;
#X obj 431 435 bng 19 250 50 0 empty empty empty 0 -10 0 12 #fcfcfc #000000 #000000;
#X obj 476 437 bng 19 250 50 0 empty empty empty 0 -10 0 12 #fcfcfc #000000 #000000;
#X obj 190 676 outlet;
#X obj 58 146 moses 40;
#X obj 113 182 moses 50;
#X obj 177 216 moses 60;
#X obj 235 250 moses 70;
#X obj 298 282 moses 80;
#X obj 422 400 moses 90;
#X obj 365 334 moses 80;
#X connect 0 0 1 0;
#X connect 1 0 2 0;
#X connect 2 0 20 0;
#X connect 3 0 19 0;
#X connect 4 0 19 0;
#X connect 5 0 19 0;
#X connect 6 0 19 0;
#X connect 7 0 19 0;
#X connect 8 0 19 0;
#X connect 9 0 19 0;
#X connect 10 0 19 0;
#X connect 11 0 3 0;
#X connect 12 0 4 0;
#X connect 13 0 5 0;
#X connect 14 0 6 0;
#X connect 15 0 7 0;
#X connect 16 0 8 0;
#X connect 17 0 9 0;
#X connect 18 0 10 0;
#X connect 20 0 11 0;
#X connect 20 1 21 0;
#X connect 21 0 12 0;
#X connect 21 1 22 0;
#X connect 22 0 13 0;
#X connect 22 1 23 0;
#X connect 23 0 14 0;
#X connect 23 1 24 0;
#X connect 24 0 15 0;
#X connect 24 1 26 0;
#X connect 25 0 17 0;
#X connect 25 1 18 0;
#X connect 26 0 16 0;
#X connect 26 1 25 0;
#X restore 164 433 pd markov;
#N canvas -424 279 1920 976 markov 0;
#X obj 55 55 inlet;
#X obj 55 79 bng 19 250 50 0 empty empty empty 0 -10 0 12 #fcfcfc #000000 #000000;
#X obj 54 108 random 100;
#X msg 57 544 1;
#X msg 118 559 2;
#X msg 181 578 3;
#X msg 243 588 4;
#X msg 303 604 5;
#X msg 357 618 6, f 2;
#X msg 410 636 7;
#X msg 455 651 8;
#X obj 54 171 bng 19 250 50 0 empty empty empty 0 -10 0 12 #fcfcfc #000000 #000000;
#X obj 115 208 bng 19 250 50 0 empty empty empty 0 -10 0 12 #fcfcfc #000000 #000000;
#X obj 189 254 bng 19 250 50 0 empty empty empty 0 -10 0 12 #fcfcfc #000000 #000000;
#X obj 244 285 bng 19 250 50 0 empty empty empty 0 -10 0 12 #fcfcfc #000000 #000000;
#X obj 298 325 bng 19 250 50 0 empty empty empty 0 -10 0 12 #fcfcfc #000000 #000000;
#X obj 368 384 bng 19 250 50 0 empty empty empty 0 -10 0 12 #fcfcfc #000000 #000000;
#X obj 431 435 bng 19 250 50 0 empty empty empty 0 -10 0 12 #fcfcfc #000000 #000000;
#X obj 476 437 bng 19 250 50 0 empty empty empty 0 -10 0 12 #fcfcfc #000000 #000000;
#X obj 190 676 outlet;
#X obj 58 146 moses 40;
#X obj 113 182 moses 50;
#X obj 177 216 moses 60;
#X obj 235 250 moses 70;
#X obj 298 282 moses 80;
#X obj 365 334 moses 90;
#X obj 422 400 moses 90;
#X connect 0 0 1 0;
#X connect 1 0 2 0;
#X connect 2 0 20 0;
#X connect 3 0 19 0;
#X connect 4 0 19 0;
#X connect 5 0 19 0;
#X connect 6 0 19 0;
#X connect 7 0 19 0;
#X connect 8 0 19 0;
#X connect 9 0 19 0;
#X connect 10 0 19 0;
#X connect 11 0 3 0;
#X connect 12 0 4 0;
#X connect 13 0 5 0;
#X connect 14 0 6 0;
#X connect 15 0 7 0;
#X connect 16 0 8 0;
#X connect 17 0 9 0;
#X connect 18 0 10 0;
#X connect 20 0 11 0;
#X connect 20 1 21 0;
#X connect 21 0 12 0;
#X connect 21 1 22 0;
#X connect 22 0 13 0;
#X connect 22 1 23 0;
#X connect 23 0 14 0;
#X connect 23 1 24 0;
#X connect 24 0 15 0;
#X connect 24 1 25 0;
#X connect 25 0 16 0;
#X connect 25 1 26 0;
#X connect 26 0 17 0;
#X connect 26 1 18 0;
#X restore 275 426 pd markov;
#N canvas -424 279 1920 976 markov 0;
#X obj 55 55 inlet;
#X obj 55 79 bng 19 250 50 0 empty empty empty 0 -10 0 12 #fcfcfc #000000 #000000;
#X obj 54 108 random 100;
#X msg 57 544 1;
#X msg 118 559 2;
#X msg 181 578 3;
#X msg 243 588 4;
#X msg 303 604 5;
#X msg 357 618 6, f 2;
#X msg 410 636 7;
#X msg 455 651 8;
#X obj 54 171 bng 19 250 50 0 empty empty empty 0 -10 0 12 #fcfcfc #000000 #000000;
#X obj 115 208 bng 19 250 50 0 empty empty empty 0 -10 0 12 #fcfcfc #000000 #000000;
#X obj 189 254 bng 19 250 50 0 empty empty empty 0 -10 0 12 #fcfcfc #000000 #000000;
#X obj 244 285 bng 19 250 50 0 empty empty empty 0 -10 0 12 #fcfcfc #000000 #000000;
#X obj 298 325 bng 19 250 50 0 empty empty empty 0 -10 0 12 #fcfcfc #000000 #000000;
#X obj 368 384 bng 19 250 50 0 empty empty empty 0 -10 0 12 #fcfcfc #000000 #000000;
#X obj 431 435 bng 19 250 50 0 empty empty empty 0 -10 0 12 #fcfcfc #000000 #000000;
#X obj 476 437 bng 19 250 50 0 empty empty empty 0 -10 0 12 #fcfcfc #000000 #000000;
#X obj 190 676 outlet;
#X obj 58 146 moses 40;
#X obj 113 182 moses 50;
#X obj 177 216 moses 60;
#X obj 235 250 moses 70;
#X obj 298 282 moses 80;
#X obj 365 334 moses 90;
#X obj 422 400 moses 90;
#X connect 0 0 1 0;
#X connect 1 0 2 0;
#X connect 2 0 20 0;
#X connect 3 0 19 0;
#X connect 4 0 19 0;
#X connect 5 0 19 0;
#X connect 6 0 19 0;
#X connect 7 0 19 0;
#X connect 8 0 19 0;
#X connect 9 0 19 0;
#X connect 10 0 19 0;
#X connect 11 0 3 0;
#X connect 12 0 4 0;
#X connect 13 0 5 0;
#X connect 14 0 6 0;
#X connect 15 0 7 0;
#X connect 16 0 8 0;
#X connect 17 0 9 0;
#X connect 18 0 10 0;
#X connect 20 0 11 0;
#X connect 20 1 21 0;
#X connect 21 0 12 0;
#X connect 21 1 22 0;
#X connect 22 0 13 0;
#X connect 22 1 23 0;
#X connect 23 0 14 0;
#X connect 23 1 24 0;
#X connect 24 0 15 0;
#X connect 24 1 25 0;
#X connect 25 0 16 0;
#X connect 25 1 26 0;
#X connect 26 0 17 0;
#X connect 26 1 18 0;
#X restore 426 433 pd markov;
#N canvas -424 279 1920 976 markov 0;
#X obj 55 55 inlet;
#X obj 55 79 bng 19 250 50 0 empty empty empty 0 -10 0 12 #fcfcfc #000000 #000000;
#X obj 54 108 random 100;
#X msg 57 544 1;
#X msg 118 559 2;
#X msg 181 578 3;
#X msg 243 588 4;
#X msg 303 604 5;
#X msg 357 618 6, f 2;
#X msg 410 636 7;
#X msg 455 651 8;
#X obj 54 171 bng 19 250 50 0 empty empty empty 0 -10 0 12 #fcfcfc #000000 #000000;
#X obj 115 208 bng 19 250 50 0 empty empty empty 0 -10 0 12 #fcfcfc #000000 #000000;
#X obj 189 254 bng 19 250 50 0 empty empty empty 0 -10 0 12 #fcfcfc #000000 #000000;
#X obj 244 285 bng 19 250 50 0 empty empty empty 0 -10 0 12 #fcfcfc #000000 #000000;
#X obj 298 325 bng 19 250 50 0 empty empty empty 0 -10 0 12 #fcfcfc #000000 #000000;
#X obj 368 384 bng 19 250 50 0 empty empty empty 0 -10 0 12 #fcfcfc #000000 #000000;
#X obj 431 435 bng 19 250 50 0 empty empty empty 0 -10 0 12 #fcfcfc #000000 #000000;
#X obj 476 437 bng 19 250 50 0 empty empty empty 0 -10 0 12 #fcfcfc #000000 #000000;
#X obj 190 676 outlet;
#X obj 58 146 moses 40;
#X obj 113 182 moses 50;
#X obj 177 216 moses 60;
#X obj 235 250 moses 70;
#X obj 298 282 moses 80;
#X obj 365 334 moses 90;
#X obj 422 400 moses 90;
#X connect 0 0 1 0;
#X connect 1 0 2 0;
#X connect 2 0 20 0;
#X connect 3 0 19 0;
#X connect 4 0 19 0;
#X connect 5 0 19 0;
#X connect 6 0 19 0;
#X connect 7 0 19 0;
#X connect 8 0 19 0;
#X connect 9 0 19 0;
#X connect 10 0 19 0;
#X connect 11 0 3 0;
#X connect 12 0 4 0;
#X connect 13 0 5 0;
#X connect 14 0 6 0;
#X connect 15 0 7 0;
#X connect 16 0 8 0;
#X connect 17 0 9 0;
#X connect 18 0 10 0;
#X connect 20 0 11 0;
#X connect 20 1 21 0;
#X connect 21 0 12 0;
#X connect 21 1 22 0;
#X connect 22 0 13 0;
#X connect 22 1 23 0;
#X connect 23 0 14 0;
#X connect 23 1 24 0;
#X connect 24 0 15 0;
#X connect 24 1 25 0;
#X connect 25 0 16 0;
#X connect 25 1 26 0;
#X connect 26 0 17 0;
#X connect 26 1 18 0;
#X restore 543 424 pd markov;
#N canvas -8 0 958 966 markov 0;
#X obj 55 55 inlet;
#X obj 55 79 bng 19 250 50 0 empty empty empty 0 -10 0 12 #fcfcfc #000000 #000000;
#X obj 54 108 random 100;
#X msg 57 544 1;
#X msg 118 559 2;
#X msg 181 578 3;
#X msg 243 588 4;
#X msg 303 604 5;
#X msg 357 618 6, f 2;
#X msg 410 636 7;
#X msg 455 651 8;
#X obj 54 171 bng 19 250 50 0 empty empty empty 0 -10 0 12 #fcfcfc #000000 #000000;
#X obj 115 208 bng 19 250 50 0 empty empty empty 0 -10 0 12 #fcfcfc #000000 #000000;
#X obj 189 254 bng 19 250 50 0 empty empty empty 0 -10 0 12 #fcfcfc #000000 #000000;
#X obj 244 285 bng 19 250 50 0 empty empty empty 0 -10 0 12 #fcfcfc #000000 #000000;
#X obj 298 325 bng 19 250 50 0 empty empty empty 0 -10 0 12 #fcfcfc #000000 #000000;
#X obj 368 384 bng 19 250 50 0 empty empty empty 0 -10 0 12 #fcfcfc #000000 #000000;
#X obj 431 435 bng 19 250 50 0 empty empty empty 0 -10 0 12 #fcfcfc #000000 #000000;
#X obj 476 437 bng 19 250 50 0 empty empty empty 0 -10 0 12 #fcfcfc #000000 #000000;
#X obj 190 676 outlet;
#X obj 58 146 moses 40;
#X obj 113 182 moses 50;
#X obj 177 216 moses 60;
#X obj 235 250 moses 70;
#X obj 298 282 moses 80;
#X obj 422 400 moses 90;
#X obj 365 334 moses 80;
#X connect 0 0 1 0;
#X connect 1 0 2 0;
#X connect 2 0 20 0;
#X connect 3 0 19 0;
#X connect 4 0 19 0;
#X connect 5 0 19 0;
#X connect 6 0 19 0;
#X connect 7 0 19 0;
#X connect 8 0 19 0;
#X connect 9 0 19 0;
#X connect 10 0 19 0;
#X connect 11 0 3 0;
#X connect 12 0 4 0;
#X connect 13 0 5 0;
#X connect 14 0 6 0;
#X connect 15 0 7 0;
#X connect 16 0 8 0;
#X connect 17 0 9 0;
#X connect 18 0 10 0;
#X connect 20 0 11 0;
#X connect 20 1 21 0;
#X connect 21 0 12 0;
#X connect 21 1 22 0;
#X connect 22 0 13 0;
#X connect 22 1 23 0;
#X connect 23 0 14 0;
#X connect 23 1 24 0;
#X connect 24 0 15 0;
#X connect 24 1 26 0;
#X connect 25 0 17 0;
#X connect 25 1 18 0;
#X connect 26 0 16 0;
#X connect 26 1 25 0;
#X restore 649 432 pd markov;
#N canvas -424 279 1920 976 markov 0;
#X obj 55 55 inlet;
#X obj 55 79 bng 19 250 50 0 empty empty empty 0 -10 0 12 #fcfcfc #000000 #000000;
#X obj 54 108 random 100;
#X msg 57 544 1;
#X msg 118 559 2;
#X msg 181 578 3;
#X msg 243 588 4;
#X msg 303 604 5;
#X msg 357 618 6, f 2;
#X msg 410 636 7;
#X msg 455 651 8;
#X obj 54 171 bng 19 250 50 0 empty empty empty 0 -10 0 12 #fcfcfc #000000 #000000;
#X obj 115 208 bng 19 250 50 0 empty empty empty 0 -10 0 12 #fcfcfc #000000 #000000;
#X obj 189 254 bng 19 250 50 0 empty empty empty 0 -10 0 12 #fcfcfc #000000 #000000;
#X obj 244 285 bng 19 250 50 0 empty empty empty 0 -10 0 12 #fcfcfc #000000 #000000;
#X obj 298 325 bng 19 250 50 0 empty empty empty 0 -10 0 12 #fcfcfc #000000 #000000;
#X obj 368 384 bng 19 250 50 0 empty empty empty 0 -10 0 12 #fcfcfc #000000 #000000;
#X obj 431 435 bng 19 250 50 0 empty empty empty 0 -10 0 12 #fcfcfc #000000 #000000;
#X obj 476 437 bng 19 250 50 0 empty empty empty 0 -10 0 12 #fcfcfc #000000 #000000;
#X obj 190 676 outlet;
#X obj 58 146 moses 40;
#X obj 113 182 moses 50;
#X obj 177 216 moses 60;
#X obj 235 250 moses 70;
#X obj 298 282 moses 80;
#X obj 365 334 moses 90;
#X obj 422 400 moses 90;
#X connect 0 0 1 0;
#X connect 1 0 2 0;
#X connect 2 0 20 0;
#X connect 3 0 19 0;
#X connect 4 0 19 0;
#X connect 5 0 19 0;
#X connect 6 0 19 0;
#X connect 7 0 19 0;
#X connect 8 0 19 0;
#X connect 9 0 19 0;
#X connect 10 0 19 0;
#X connect 11 0 3 0;
#X connect 12 0 4 0;
#X connect 13 0 5 0;
#X connect 14 0 6 0;
#X connect 15 0 7 0;
#X connect 16 0 8 0;
#X connect 17 0 9 0;
#X connect 18 0 10 0;
#X connect 20 0 11 0;
#X connect 20 1 21 0;
#X connect 21 0 12 0;
#X connect 21 1 22 0;
#X connect 22 0 13 0;
#X connect 22 1 23 0;
#X connect 23 0 14 0;
#X connect 23 1 24 0;
#X connect 24 0 15 0;
#X connect 24 1 25 0;
#X connect 25 0 16 0;
#X connect 25 1 26 0;
#X connect 26 0 17 0;
#X connect 26 1 18 0;
#X restore 747 427 pd markov;
#N canvas -34 165 1920 976 markov 0;
#X obj 55 55 inlet;
#X obj 55 79 bng 19 250 50 0 empty empty empty 0 -10 0 12 #fcfcfc #000000 #000000;
#X obj 54 108 random 100;
#X msg 57 544 1;
#X msg 118 559 2;
#X msg 181 578 3;
#X msg 243 588 4;
#X msg 303 604 5;
#X msg 357 618 6, f 2;
#X msg 410 636 7;
#X msg 455 651 8;
#X obj 54 171 bng 19 250 50 0 empty empty empty 0 -10 0 12 #fcfcfc #000000 #000000;
#X obj 115 208 bng 19 250 50 0 empty empty empty 0 -10 0 12 #fcfcfc #000000 #000000;
#X obj 189 254 bng 19 250 50 0 empty empty empty 0 -10 0 12 #fcfcfc #000000 #000000;
#X obj 244 285 bng 19 250 50 0 empty empty empty 0 -10 0 12 #fcfcfc #000000 #000000;
#X obj 298 325 bng 19 250 50 0 empty empty empty 0 -10 0 12 #fcfcfc #000000 #000000;
#X obj 368 384 bng 19 250 50 0 empty empty empty 0 -10 0 12 #fcfcfc #000000 #000000;
#X obj 431 435 bng 19 250 50 0 empty empty empty 0 -10 0 12 #fcfcfc #000000 #000000;
#X obj 476 437 bng 19 250 50 0 empty empty empty 0 -10 0 12 #fcfcfc #000000 #000000;
#X obj 190 676 outlet;
#X obj 58 146 moses 40;
#X obj 113 182 moses 50;
#X obj 177 216 moses 60;
#X obj 235 250 moses 70;
#X obj 298 282 moses 80;
#X obj 365 334 moses 90;
#X obj 422 400 moses 90;
#X connect 0 0 1 0;
#X connect 1 0 2 0;
#X connect 2 0 20 0;
#X connect 3 0 19 0;
#X connect 4 0 19 0;
#X connect 5 0 19 0;
#X connect 6 0 19 0;
#X connect 7 0 19 0;
#X connect 8 0 19 0;
#X connect 9 0 19 0;
#X connect 10 0 19 0;
#X connect 11 0 3 0;
#X connect 12 0 4 0;
#X connect 13 0 5 0;
#X connect 14 0 6 0;
#X connect 15 0 7 0;
#X connect 16 0 8 0;
#X connect 17 0 9 0;
#X connect 18 0 10 0;
#X connect 20 0 11 0;
#X connect 20 1 21 0;
#X connect 21 0 12 0;
#X connect 21 1 22 0;
#X connect 22 0 13 0;
#X connect 22 1 23 0;
#X connect 23 0 14 0;
#X connect 23 1 24 0;
#X connect 24 0 15 0;
#X connect 24 1 25 0;
#X connect 25 0 16 0;
#X connect 25 1 26 0;
#X connect 26 0 17 0;
#X connect 26 1 18 0;
#X restore 834 423 pd markov;
#N canvas -424 279 1920 976 markov 0;
#X obj 55 55 inlet;
#X obj 55 79 bng 19 250 50 0 empty empty empty 0 -10 0 12 #fcfcfc #000000 #000000;
#X obj 54 108 random 100;
#X msg 57 544 1;
#X msg 118 559 2;
#X msg 181 578 3;
#X msg 243 588 4;
#X msg 303 604 5;
#X msg 357 618 6, f 2;
#X msg 410 636 7;
#X msg 455 651 8;
#X obj 54 171 bng 19 250 50 0 empty empty empty 0 -10 0 12 #fcfcfc #000000 #000000;
#X obj 115 208 bng 19 250 50 0 empty empty empty 0 -10 0 12 #fcfcfc #000000 #000000;
#X obj 189 254 bng 19 250 50 0 empty empty empty 0 -10 0 12 #fcfcfc #000000 #000000;
#X obj 244 285 bng 19 250 50 0 empty empty empty 0 -10 0 12 #fcfcfc #000000 #000000;
#X obj 298 325 bng 19 250 50 0 empty empty empty 0 -10 0 12 #fcfcfc #000000 #000000;
#X obj 368 384 bng 19 250 50 0 empty empty empty 0 -10 0 12 #fcfcfc #000000 #000000;
#X obj 431 435 bng 19 250 50 0 empty empty empty 0 -10 0 12 #fcfcfc #000000 #000000;
#X obj 476 437 bng 19 250 50 0 empty empty empty 0 -10 0 12 #fcfcfc #000000 #000000;
#X obj 190 676 outlet;
#X obj 58 146 moses 40;
#X obj 113 182 moses 50;
#X obj 177 216 moses 60;
#X obj 235 250 moses 70;
#X obj 298 282 moses 80;
#X obj 365 334 moses 90;
#X obj 422 400 moses 90;
#X connect 0 0 1 0;
#X connect 1 0 2 0;
#X connect 2 0 20 0;
#X connect 3 0 19 0;
#X connect 4 0 19 0;
#X connect 5 0 19 0;
#X connect 6 0 19 0;
#X connect 7 0 19 0;
#X connect 8 0 19 0;
#X connect 9 0 19 0;
#X connect 10 0 19 0;
#X connect 11 0 3 0;
#X connect 12 0 4 0;
#X connect 13 0 5 0;
#X connect 14 0 6 0;
#X connect 15 0 7 0;
#X connect 16 0 8 0;
#X connect 17 0 9 0;
#X connect 18 0 10 0;
#X connect 20 0 11 0;
#X connect 20 1 21 0;
#X connect 21 0 12 0;
#X connect 21 1 22 0;
#X connect 22 0 13 0;
#X connect 22 1 23 0;
#X connect 23 0 14 0;
#X connect 23 1 24 0;
#X connect 24 0 15 0;
#X connect 24 1 25 0;
#X connect 25 0 16 0;
#X connect 25 1 26 0;
#X connect 26 0 17 0;
#X connect 26 1 18 0;
#X restore 933 419 pd markov;
#X obj 499 569 s state;
#X obj 468 26 r state;
#X floatatom 137 131 5 0 0 0 - - - 0;
#X msg 669 77 \; state 1;
#X obj 497 113 outlet;
#X obj 65 20 inlet;
#X connect 0 0 1 0;
#X connect 1 0 2 0;
#X connect 2 0 3 0;
#X connect 2 1 4 0;
#X connect 2 2 5 0;
#X connect 2 3 6 0;
#X connect 2 4 7 0;
#X connect 2 5 8 0;
#X connect 2 6 9 0;
#X connect 2 7 10 0;
#X connect 3 0 11 0;
#X connect 4 0 12 0;
#X connect 5 0 13 0;
#X connect 6 0 14 0;
#X connect 7 0 15 0;
#X connect 8 0 16 0;
#X connect 9 0 17 0;
#X connect 10 0 18 0;
#X connect 11 0 19 0;
#X connect 12 0 19 0;
#X connect 13 0 19 0;
#X connect 14 0 19 0;
#X connect 15 0 19 0;
#X connect 16 0 19 0;
#X connect 17 0 19 0;
#X connect 18 0 19 0;
#X connect 20 0 21 0;
#X connect 20 0 1 1;
#X connect 21 0 23 0;
#X connect 24 0 0 0;
#X coords 0 -1 1 1 85 60 1 100 100;
