#N canvas 753 159 1014 744 12;
#X text 107 133 Kick;
#X text 177 130 Snare;
#X text 218 171 Mastr;
#X floatatom 557 418 5 0 0 0 - - - 0;
#X obj 112 161 vsl 19 200 0.01 4 0 0 empty empty empty 0 -9 0 12 #fcfcfc #000000 #000000 0 1;
#X obj 149 161 vsl 19 200 0.01 4 0 0 empty empty empty 0 -9 0 12 #fcfcfc #000000 #000000 0 1;
#X obj 185 161 vsl 19 200 0.01 4 0 0 empty empty empty 0 -9 0 12 #fcfcfc #000000 #000000 0 1;
#X obj 218 200 vsl 40 160 1 5 1 0 empty empty empty 0 -9 0 12 #fcfcfc #000000 #000000 0 1;
#X obj 595 329 int;
#X text 148 131 Hi.;
#N canvas 979 221 450 300 vol 0;
#X obj 37 37 inlet~;
#X obj 80 139 *~;
#X obj 98 78 pack f 100;
#X obj 98 102 line~;
#X obj 97 42 inlet;
#X obj 80 163 outlet~;
#X connect 0 0 1 0;
#X connect 1 0 5 0;
#X connect 2 0 3 0;
#X connect 3 0 1 1;
#X connect 4 0 2 0;
#X restore 482 538 pd vol;
#X obj 481 575 *~ 1;
#X obj 481 599 outlet~;
#X obj 444 74 inlet~;
#X obj 70 407 outlet;
#X obj 127 406 outlet;
#X obj 186 412 outlet;
#X obj 276 161 vu 19 200 empty empty -1 -10 0 12 #404040 #000000 1 0;
#X obj 444 98 env~;
#X connect 3 0 10 1;
#X connect 4 0 14 0;
#X connect 5 0 15 0;
#X connect 6 0 16 0;
#X connect 7 0 8 0;
#X connect 8 0 3 0;
#X connect 10 0 11 0;
#X connect 11 0 12 0;
#X connect 13 0 10 0;
#X connect 13 0 18 0;
#X connect 18 0 17 0;
#X coords 0 -1 1 1 240 270 1 100 100;
