#N canvas 349 152 1920 976 12;
#X obj 63 97 counter;
#X obj 308 223 mixer;
#X obj 63 223 Toggle;
#X text 176 74 MXCHINA'S MARKOV CHAIN DRUM-MACHINE;
#X obj 530 573 dac~;
#X msg 717 218 open markov.wav;
#X msg 774 258 start;
#X msg 793 296 stop;
#X text 341 105 Record;
#X obj 386 136 bng 19 250 50 0 empty empty empty 0 -10 0 12 #00ff04 #000000 #000000;
#X obj 387 165 bng 19 250 50 0 empty empty empty 0 -10 0 12 #ff0400 #000000 #000000;
#X text 327 140 start;
#X text 333 165 stop;
#X obj 789 120 delay 1;
#X obj 606 336 writesf~ 2;
#X connect 0 0 2 1;
#X connect 1 0 2 0;
#X connect 1 1 2 2;
#X connect 1 2 2 3;
#X connect 1 3 4 1;
#X connect 1 3 4 0;
#X connect 2 0 1 0;
#X connect 5 0 14 0;
#X connect 6 0 14 0;
#X connect 7 0 14 0;
#X connect 9 0 13 0;
#X connect 9 0 5 0;
#X connect 10 0 7 0;
#X connect 13 0 6 0;
#X coords 0 -1 1 1 510 430 1 50 70;
