#N canvas 1781 1019 1920 976 12;
#X obj 171 377 tgl 19 0 empty empty empty 0 -10 0 12 #fcfcfc #000000 #000000 0 1;
#X floatatom 917 21 5 0 0 0 - - - 0;
#X obj 917 44 sel 1 2 3 4 5 6 7 8;
#X obj 882 199 bng 19 250 50 0 empty empty empty 0 -10 0 12 #fcfcfc #000000 #000000;
#X obj 910 194 bng 19 250 50 0 empty empty empty 0 -10 0 12 #fcfcfc #000000 #000000;
#X obj 945 204 bng 19 250 50 0 empty empty empty 0 -10 0 12 #fcfcfc #000000 #000000;
#X obj 981 207 bng 19 250 50 0 empty empty empty 0 -10 0 12 #fcfcfc #000000 #000000;
#X obj 1027 199 bng 19 250 50 0 empty empty empty 0 -10 0 12 #fcfcfc #000000 #000000;
#X obj 1093 200 bng 19 250 50 0 empty empty empty 0 -10 0 12 #fcfcfc #000000 #000000;
#X obj 1148 206 bng 19 250 50 0 empty empty empty 0 -10 0 12 #fcfcfc #000000 #000000;
#X obj 1203 209 bng 19 250 50 0 empty empty empty 0 -10 0 12 #fcfcfc #000000 #000000;
#X obj 878 256 s one;
#X obj 932 257 s two;
#X obj 988 259 s three;
#X obj 1075 253 s four;
#X obj 1135 253 s five;
#X obj 1203 254 s six;
#X obj 1258 254 s seven;
#X obj 1325 255 s eight;
#X obj 408 503 r one;
#X obj 408 527 bng 19 250 50 0 empty empty empty 0 -10 0 12 #fcfcfc #000000 #000000;
#X obj 408 551 spigot;
#X obj 171 399 bng 19 250 50 0 empty empty empty 0 -10 0 12 #fcfcfc #000000 #000000;
#X obj 192 377 tgl 19 0 empty empty empty 0 -10 0 12 #fcfcfc #000000 #000000 0 1;
#X obj 478 525 bng 19 250 50 0 empty empty empty 0 -10 0 12 #fcfcfc #000000 #000000;
#X obj 478 549 spigot;
#X obj 192 399 bng 19 250 50 0 empty empty empty 0 -10 0 12 #fcfcfc #000000 #000000;
#X obj 478 501 r two;
#X obj 213 377 tgl 19 0 empty empty empty 0 -10 0 12 #fcfcfc #000000 #000000 0 1;
#X obj 550 523 bng 19 250 50 0 empty empty empty 0 -10 0 12 #fcfcfc #000000 #000000;
#X obj 550 547 spigot;
#X obj 213 399 bng 19 250 50 0 empty empty empty 0 -10 0 12 #fcfcfc #000000 #000000;
#X obj 550 499 r three;
#X obj 234 377 tgl 19 0 empty empty empty 0 -10 0 12 #fcfcfc #000000 #000000 0 1;
#X obj 621 523 bng 19 250 50 0 empty empty empty 0 -10 0 12 #fcfcfc #000000 #000000;
#X obj 621 547 spigot;
#X obj 234 399 bng 19 250 50 0 empty empty empty 0 -10 0 12 #fcfcfc #000000 #000000;
#X obj 621 499 r four;
#X obj 256 377 tgl 19 0 empty empty empty 0 -10 0 12 #fcfcfc #000000 #000000 0 1;
#X obj 690 522 bng 19 250 50 0 empty empty empty 0 -10 0 12 #fcfcfc #000000 #000000;
#X obj 690 546 spigot;
#X obj 256 399 bng 19 250 50 0 empty empty empty 0 -10 0 12 #fcfcfc #000000 #000000;
#X obj 690 498 r five;
#X obj 277 377 tgl 19 0 empty empty empty 0 -10 0 12 #fcfcfc #000000 #000000 0 1;
#X obj 766 520 bng 19 250 50 0 empty empty empty 0 -10 0 12 #fcfcfc #000000 #000000;
#X obj 766 544 spigot;
#X obj 277 399 bng 19 250 50 0 empty empty empty 0 -10 0 12 #fcfcfc #000000 #000000;
#X obj 766 496 r six;
#X obj 298 377 tgl 19 0 empty empty empty 0 -10 0 12 #fcfcfc #000000 #000000 0 1;
#X obj 840 522 bng 19 250 50 0 empty empty empty 0 -10 0 12 #fcfcfc #000000 #000000;
#X obj 840 546 spigot;
#X obj 298 399 bng 19 250 50 0 empty empty empty 0 -10 0 12 #fcfcfc #000000 #000000;
#X obj 840 498 r seven;
#X obj 319 377 tgl 19 0 empty empty empty 0 -10 0 12 #fcfcfc #000000 #000000 0 1;
#X obj 910 520 bng 19 250 50 0 empty empty empty 0 -10 0 12 #fcfcfc #000000 #000000;
#X obj 910 544 spigot;
#X obj 319 399 bng 19 250 50 0 empty empty empty 0 -10 0 12 #fcfcfc #000000 #000000;
#X obj 910 496 r eight;
#X obj 645 942 /~ 5;
#X obj 919 -12 inlet;
#X text 175 357 1;
#X text 195 357 2;
#X text 217 357 3;
#X text 237 356 4;
#X text 261 356 5;
#X text 281 356 6;
#X text 302 357 7;
#X text 322 356 8;
#X obj 650 710 t b b;
#X msg 650 734 1 \, 0 100;
#X obj 650 758 line~;
#X obj 650 782 pow~ 4;
#X obj 649 842 *~;
#X obj 746 797 osc~ 200;
#X obj 837 750 line~;
#X obj 837 774 pow~ 4;
#X obj 836 834 *~;
#X msg 837 726 1 \, 0 200;
#X obj 957 746 noise~;
#X obj 957 794 bp~ 5000 2;
#X obj 645 883 +~;
#X obj 961 770 hip~ 2000;
#X obj 645 907 lop~ 6000;
#X obj 641 976 outlet~, f 11;
#X obj 650 642 send snare;
#X obj 651 676 receive snare;
#X connect 0 0 21 1;
#X connect 1 0 2 0;
#X connect 2 0 3 0;
#X connect 2 1 4 0;
#X connect 2 2 5 0;
#X connect 2 3 6 0;
#X connect 2 4 7 0;
#X connect 2 5 8 0;
#X connect 2 6 9 0;
#X connect 2 7 10 0;
#X connect 3 0 11 0;
#X connect 4 0 12 0;
#X connect 5 0 13 0;
#X connect 6 0 14 0;
#X connect 7 0 15 0;
#X connect 8 0 16 0;
#X connect 9 0 17 0;
#X connect 10 0 18 0;
#X connect 19 0 20 0;
#X connect 20 0 21 0;
#X connect 21 0 22 0;
#X connect 22 0 84 0;
#X connect 23 0 25 1;
#X connect 24 0 25 0;
#X connect 25 0 26 0;
#X connect 26 0 84 0;
#X connect 27 0 24 0;
#X connect 28 0 30 1;
#X connect 29 0 30 0;
#X connect 30 0 31 0;
#X connect 31 0 84 0;
#X connect 32 0 29 0;
#X connect 33 0 35 1;
#X connect 34 0 35 0;
#X connect 35 0 36 0;
#X connect 36 0 84 0;
#X connect 37 0 34 0;
#X connect 38 0 40 1;
#X connect 39 0 40 0;
#X connect 40 0 41 0;
#X connect 41 0 84 0;
#X connect 42 0 39 0;
#X connect 43 0 45 1;
#X connect 44 0 45 0;
#X connect 45 0 46 0;
#X connect 46 0 84 0;
#X connect 47 0 44 0;
#X connect 48 0 50 1;
#X connect 49 0 50 0;
#X connect 50 0 51 0;
#X connect 51 0 84 0;
#X connect 52 0 49 0;
#X connect 53 0 55 1;
#X connect 54 0 55 0;
#X connect 55 0 56 0;
#X connect 56 0 84 0;
#X connect 57 0 54 0;
#X connect 58 0 83 0;
#X connect 59 0 1 0;
#X connect 68 0 69 0;
#X connect 68 1 77 0;
#X connect 69 0 70 0;
#X connect 70 0 71 0;
#X connect 71 0 72 0;
#X connect 72 0 80 0;
#X connect 73 0 72 1;
#X connect 74 0 75 0;
#X connect 75 0 76 0;
#X connect 76 0 80 0;
#X connect 77 0 74 0;
#X connect 78 0 81 0;
#X connect 79 0 76 1;
#X connect 80 0 82 0;
#X connect 81 0 79 0;
#X connect 82 0 58 0;
#X connect 85 0 68 0;
#X coords 0 -1 1 1 215 85 1 130 340;
