#N canvas 169 1006 1920 976 12;
#X obj 80 149 tgl 19 0 empty empty empty 0 -10 0 12 #fcfcfc #000000 #000000 0 1;
#X floatatom 995 84 5 0 0 0 - - - 0;
#X obj 995 107 sel 1 2 3 4 5 6 7 8;
#X obj 960 262 bng 19 250 50 0 empty empty empty 0 -10 0 12 #fcfcfc #000000 #000000;
#X obj 988 257 bng 19 250 50 0 empty empty empty 0 -10 0 12 #fcfcfc #000000 #000000;
#X obj 1023 267 bng 19 250 50 0 empty empty empty 0 -10 0 12 #fcfcfc #000000 #000000;
#X obj 1059 270 bng 19 250 50 0 empty empty empty 0 -10 0 12 #fcfcfc #000000 #000000;
#X obj 1089 270 bng 19 250 50 0 empty empty empty 0 -10 0 12 #fcfcfc #000000 #000000;
#X obj 1159 263 bng 19 250 50 0 empty empty empty 0 -10 0 12 #fcfcfc #000000 #000000;
#X obj 1214 269 bng 19 250 50 0 empty empty empty 0 -10 0 12 #fcfcfc #000000 #000000;
#X obj 1269 272 bng 19 250 50 0 empty empty empty 0 -10 0 12 #fcfcfc #000000 #000000;
#X obj 956 319 s one;
#X obj 1010 320 s two;
#X obj 1066 322 s three;
#X obj 1137 324 s four;
#X obj 1201 316 s five;
#X obj 1269 317 s six;
#X obj 1324 317 s seven;
#X obj 1391 318 s eight;
#X obj 59 550 r one;
#X obj 59 574 bng 19 250 50 0 empty empty empty 0 -10 0 12 #fcfcfc #000000 #000000;
#X obj 59 598 spigot;
#X obj 80 171 bng 19 250 50 0 empty empty empty 0 -10 0 12 #fcfcfc #000000 #000000;
#X obj 101 149 tgl 19 0 empty empty empty 0 -10 0 12 #fcfcfc #000000 #000000 0 1;
#X obj 129 572 bng 19 250 50 0 empty empty empty 0 -10 0 12 #fcfcfc #000000 #000000;
#X obj 129 596 spigot;
#X obj 101 171 bng 19 250 50 0 empty empty empty 0 -10 0 12 #fcfcfc #000000 #000000;
#X obj 129 548 r two;
#X obj 122 149 tgl 19 0 empty empty empty 0 -10 0 12 #fcfcfc #000000 #000000 0 1;
#X obj 201 570 bng 19 250 50 0 empty empty empty 0 -10 0 12 #fcfcfc #000000 #000000;
#X obj 201 594 spigot;
#X obj 122 171 bng 19 250 50 0 empty empty empty 0 -10 0 12 #fcfcfc #000000 #000000;
#X obj 201 546 r three;
#X obj 143 149 tgl 19 0 empty empty empty 0 -10 0 12 #fcfcfc #000000 #000000 0 1;
#X obj 272 570 bng 19 250 50 0 empty empty empty 0 -10 0 12 #fcfcfc #000000 #000000;
#X obj 272 594 spigot;
#X obj 143 171 bng 19 250 50 0 empty empty empty 0 -10 0 12 #fcfcfc #000000 #000000;
#X obj 272 546 r four;
#X obj 165 149 tgl 19 0 empty empty empty 0 -10 0 12 #fcfcfc #000000 #000000 0 1;
#X obj 341 569 bng 19 250 50 0 empty empty empty 0 -10 0 12 #fcfcfc #000000 #000000;
#X obj 341 593 spigot;
#X obj 165 171 bng 19 250 50 0 empty empty empty 0 -10 0 12 #fcfcfc #000000 #000000;
#X obj 341 545 r five;
#X obj 186 149 tgl 19 0 empty empty empty 0 -10 0 12 #fcfcfc #000000 #000000 0 1;
#X obj 417 567 bng 19 250 50 0 empty empty empty 0 -10 0 12 #fcfcfc #000000 #000000;
#X obj 417 591 spigot;
#X obj 186 171 bng 19 250 50 0 empty empty empty 0 -10 0 12 #fcfcfc #000000 #000000;
#X obj 417 543 r six;
#X obj 207 149 tgl 19 0 empty empty empty 0 -10 0 12 #fcfcfc #000000 #000000 0 1;
#X obj 491 569 bng 19 250 50 0 empty empty empty 0 -10 0 12 #fcfcfc #000000 #000000;
#X obj 491 593 spigot;
#X obj 207 171 bng 19 250 50 0 empty empty empty 0 -10 0 12 #fcfcfc #000000 #000000;
#X obj 491 545 r seven;
#X obj 228 149 tgl 19 0 empty empty empty 0 -10 0 12 #fcfcfc #000000 #000000 0 1;
#X obj 561 567 bng 19 250 50 0 empty empty empty 0 -10 0 12 #fcfcfc #000000 #000000;
#X obj 561 591 spigot;
#X obj 228 171 bng 19 250 50 0 empty empty empty 0 -10 0 12 #fcfcfc #000000 #000000;
#X obj 561 543 r eight;
#X obj 301 689 send kick;
#X obj 302 723 receive kick;
#X obj 294 784 line~, f 6;
#X obj 294 808 sqrt~;
#X obj 294 832 *~ 20;
#X obj 293 885 cos~;
#X msg 294 760 0 \, 1 200;
#X obj 293 861 -~ 0.1255;
#X obj 293 914 /~ 5;
#X text 84 129 1;
#X text 104 129 2;
#X text 126 129 3;
#X text 146 128 4;
#X text 170 128 5;
#X text 190 128 6;
#X text 211 129 7;
#X text 231 128 8;
#X obj 1115 976 outlet~;
#X text 35 160 Kick;
#X obj 79 222 tgl 19 0 empty empty empty 0 -10 0 12 #fcfcfc #000000 #000000 0 1;
#X obj 814 417 r one;
#X obj 814 441 bng 19 250 50 0 empty empty empty 0 -10 0 12 #fcfcfc #000000 #000000;
#X obj 814 465 spigot;
#X obj 79 244 bng 19 250 50 0 empty empty empty 0 -10 0 12 #fcfcfc #000000 #000000;
#X obj 100 222 tgl 19 0 empty empty empty 0 -10 0 12 #fcfcfc #000000 #000000 0 1;
#X obj 884 439 bng 19 250 50 0 empty empty empty 0 -10 0 12 #fcfcfc #000000 #000000;
#X obj 884 463 spigot;
#X obj 100 244 bng 19 250 50 0 empty empty empty 0 -10 0 12 #fcfcfc #000000 #000000;
#X obj 884 415 r two;
#X obj 121 222 tgl 19 0 empty empty empty 0 -10 0 12 #fcfcfc #000000 #000000 0 1;
#X obj 956 437 bng 19 250 50 0 empty empty empty 0 -10 0 12 #fcfcfc #000000 #000000;
#X obj 956 461 spigot;
#X obj 121 244 bng 19 250 50 0 empty empty empty 0 -10 0 12 #fcfcfc #000000 #000000;
#X obj 956 413 r three;
#X obj 142 222 tgl 19 0 empty empty empty 0 -10 0 12 #fcfcfc #000000 #000000 0 1;
#X obj 1027 437 bng 19 250 50 0 empty empty empty 0 -10 0 12 #fcfcfc #000000 #000000;
#X obj 1027 461 spigot;
#X obj 142 244 bng 19 250 50 0 empty empty empty 0 -10 0 12 #fcfcfc #000000 #000000;
#X obj 1027 413 r four;
#X obj 164 222 tgl 19 0 empty empty empty 0 -10 0 12 #fcfcfc #000000 #000000 0 1;
#X obj 1096 436 bng 19 250 50 0 empty empty empty 0 -10 0 12 #fcfcfc #000000 #000000;
#X obj 1096 460 spigot;
#X obj 164 244 bng 19 250 50 0 empty empty empty 0 -10 0 12 #fcfcfc #000000 #000000;
#X obj 1096 412 r five;
#X obj 185 222 tgl 19 0 empty empty empty 0 -10 0 12 #fcfcfc #000000 #000000 0 1;
#X obj 1172 434 bng 19 250 50 0 empty empty empty 0 -10 0 12 #fcfcfc #000000 #000000;
#X obj 1172 458 spigot;
#X obj 185 244 bng 19 250 50 0 empty empty empty 0 -10 0 12 #fcfcfc #000000 #000000;
#X obj 1172 410 r six;
#X obj 206 222 tgl 19 0 empty empty empty 0 -10 0 12 #fcfcfc #000000 #000000 0 1;
#X obj 1246 436 bng 19 250 50 0 empty empty empty 0 -10 0 12 #fcfcfc #000000 #000000;
#X obj 1246 460 spigot;
#X obj 206 244 bng 19 250 50 0 empty empty empty 0 -10 0 12 #fcfcfc #000000 #000000;
#X obj 1246 412 r seven;
#X obj 227 222 tgl 19 0 empty empty empty 0 -10 0 12 #fcfcfc #000000 #000000 0 1;
#X obj 1316 434 bng 19 250 50 0 empty empty empty 0 -10 0 12 #fcfcfc #000000 #000000;
#X obj 1316 458 spigot;
#X obj 227 244 bng 19 250 50 0 empty empty empty 0 -10 0 12 #fcfcfc #000000 #000000;
#X obj 1316 410 r eight;
#X obj 1111 900 /~ 5;
#X text 83 202 1;
#X text 103 202 2;
#X text 125 202 3;
#X text 145 201 4;
#X text 169 201 5;
#X text 189 201 6;
#X text 210 202 7;
#X text 230 201 8;
#X obj 1081 696 line~;
#X obj 1081 720 pow~ 4;
#X obj 1080 780 *~;
#X obj 1163 763 hip~ 8000;
#X obj 1159 787 hip~ 8000;
#X obj 1163 637 phasor~ 350;
#X obj 1163 661 *~ 2;
#X obj 1163 685 -~ 1;
#X obj 1288 660 *~ 2;
#X obj 1287 683 -~ 1;
#X obj 1288 636 phasor~ 800;
#X obj 1162 732 +~;
#X obj 1328 715 noise~;
#X obj 1328 739 /~ 5;
#X msg 1082 673 1 \, 0 150;
#X obj 1092 839 *~ 3;
#X obj 1056 556 send hihats;
#X obj 1057 590 receive hihats;
#X text 27 233 Hihats;
#X obj 79 297 tgl 19 0 empty empty empty 0 -10 0 12 #fcfcfc #000000 #000000 0 1;
#X obj 1617 346 r one;
#X obj 1617 370 bng 19 250 50 0 empty empty empty 0 -10 0 12 #fcfcfc #000000 #000000;
#X obj 1617 394 spigot;
#X obj 79 319 bng 19 250 50 0 empty empty empty 0 -10 0 12 #fcfcfc #000000 #000000;
#X obj 100 297 tgl 19 0 empty empty empty 0 -10 0 12 #fcfcfc #000000 #000000 0 1;
#X obj 1687 368 bng 19 250 50 0 empty empty empty 0 -10 0 12 #fcfcfc #000000 #000000;
#X obj 1687 392 spigot;
#X obj 100 319 bng 19 250 50 0 empty empty empty 0 -10 0 12 #fcfcfc #000000 #000000;
#X obj 1687 344 r two;
#X obj 121 297 tgl 19 0 empty empty empty 0 -10 0 12 #fcfcfc #000000 #000000 0 1;
#X obj 1759 366 bng 19 250 50 0 empty empty empty 0 -10 0 12 #fcfcfc #000000 #000000;
#X obj 1759 390 spigot;
#X obj 121 319 bng 19 250 50 0 empty empty empty 0 -10 0 12 #fcfcfc #000000 #000000;
#X obj 1759 342 r three;
#X obj 142 297 tgl 19 0 empty empty empty 0 -10 0 12 #fcfcfc #000000 #000000 0 1;
#X obj 1830 366 bng 19 250 50 0 empty empty empty 0 -10 0 12 #fcfcfc #000000 #000000;
#X obj 1830 390 spigot;
#X obj 142 319 bng 19 250 50 0 empty empty empty 0 -10 0 12 #fcfcfc #000000 #000000;
#X obj 1830 342 r four;
#X obj 164 297 tgl 19 0 empty empty empty 0 -10 0 12 #fcfcfc #000000 #000000 0 1;
#X obj 1899 365 bng 19 250 50 0 empty empty empty 0 -10 0 12 #fcfcfc #000000 #000000;
#X obj 1899 389 spigot;
#X obj 164 319 bng 19 250 50 0 empty empty empty 0 -10 0 12 #fcfcfc #000000 #000000;
#X obj 1899 341 r five;
#X obj 185 297 tgl 19 0 empty empty empty 0 -10 0 12 #fcfcfc #000000 #000000 0 1;
#X obj 1975 363 bng 19 250 50 0 empty empty empty 0 -10 0 12 #fcfcfc #000000 #000000;
#X obj 1975 387 spigot;
#X obj 185 319 bng 19 250 50 0 empty empty empty 0 -10 0 12 #fcfcfc #000000 #000000;
#X obj 1975 339 r six;
#X obj 206 297 tgl 19 0 empty empty empty 0 -10 0 12 #fcfcfc #000000 #000000 0 1;
#X obj 2049 365 bng 19 250 50 0 empty empty empty 0 -10 0 12 #fcfcfc #000000 #000000;
#X obj 2049 389 spigot;
#X obj 206 319 bng 19 250 50 0 empty empty empty 0 -10 0 12 #fcfcfc #000000 #000000;
#X obj 2049 341 r seven;
#X obj 227 297 tgl 19 0 empty empty empty 0 -10 0 12 #fcfcfc #000000 #000000 0 1;
#X obj 2119 363 bng 19 250 50 0 empty empty empty 0 -10 0 12 #fcfcfc #000000 #000000;
#X obj 2119 387 spigot;
#X obj 227 319 bng 19 250 50 0 empty empty empty 0 -10 0 12 #fcfcfc #000000 #000000;
#X obj 2119 339 r eight;
#X obj 1854 785 /~ 5;
#X text 83 277 1;
#X text 103 277 2;
#X text 125 277 3;
#X text 145 276 4;
#X text 169 276 5;
#X text 189 276 6;
#X text 210 277 7;
#X text 230 276 8;
#X obj 1859 553 t b b;
#X msg 1859 577 1 \, 0 100;
#X obj 1859 601 line~;
#X obj 1859 625 pow~ 4;
#X obj 1858 685 *~;
#X obj 1955 640 osc~ 200;
#X obj 2046 593 line~;
#X obj 2046 617 pow~ 4;
#X obj 2045 677 *~;
#X msg 2046 569 1 \, 0 200;
#X obj 2166 589 noise~;
#X obj 2166 637 bp~ 5000 2;
#X obj 1854 726 +~;
#X obj 2170 613 hip~ 2000;
#X obj 1854 750 lop~ 6000;
#X obj 1859 485 send snare;
#X obj 1860 519 receive snare;
#X text 27 305 Snare;
#X obj 528 865 *~;
#X obj 1108 937 *~;
#X obj 1719 872 *~;
#X obj 987 47 inlet;
#X obj 524 806 inlet;
#X obj 1228 887 inlet;
#X obj 1983 800 inlet;
#X connect 0 0 21 1;
#X connect 1 0 2 0;
#X connect 2 0 3 0;
#X connect 2 1 4 0;
#X connect 2 2 5 0;
#X connect 2 3 6 0;
#X connect 2 4 7 0;
#X connect 2 5 8 0;
#X connect 2 6 9 0;
#X connect 2 7 10 0;
#X connect 3 0 11 0;
#X connect 4 0 12 0;
#X connect 5 0 13 0;
#X connect 6 0 14 0;
#X connect 7 0 15 0;
#X connect 8 0 16 0;
#X connect 9 0 17 0;
#X connect 10 0 18 0;
#X connect 19 0 20 0;
#X connect 20 0 21 0;
#X connect 21 0 22 0;
#X connect 22 0 58 0;
#X connect 23 0 25 1;
#X connect 24 0 25 0;
#X connect 25 0 26 0;
#X connect 26 0 58 0;
#X connect 27 0 24 0;
#X connect 28 0 30 1;
#X connect 29 0 30 0;
#X connect 30 0 31 0;
#X connect 31 0 58 0;
#X connect 32 0 29 0;
#X connect 33 0 35 1;
#X connect 34 0 35 0;
#X connect 35 0 36 0;
#X connect 36 0 58 0;
#X connect 37 0 34 0;
#X connect 38 0 40 1;
#X connect 39 0 40 0;
#X connect 40 0 41 0;
#X connect 41 0 58 0;
#X connect 42 0 39 0;
#X connect 43 0 45 1;
#X connect 44 0 45 0;
#X connect 45 0 46 0;
#X connect 46 0 58 0;
#X connect 47 0 44 0;
#X connect 48 0 50 1;
#X connect 49 0 50 0;
#X connect 50 0 51 0;
#X connect 51 0 58 0;
#X connect 52 0 49 0;
#X connect 53 0 55 1;
#X connect 54 0 55 0;
#X connect 55 0 56 0;
#X connect 56 0 58 0;
#X connect 57 0 54 0;
#X connect 59 0 64 0;
#X connect 60 0 61 0;
#X connect 61 0 62 0;
#X connect 62 0 65 0;
#X connect 63 0 66 0;
#X connect 64 0 60 0;
#X connect 65 0 63 0;
#X connect 66 0 212 0;
#X connect 77 0 80 1;
#X connect 78 0 79 0;
#X connect 79 0 80 0;
#X connect 80 0 81 0;
#X connect 81 0 142 0;
#X connect 82 0 84 1;
#X connect 83 0 84 0;
#X connect 84 0 85 0;
#X connect 85 0 142 0;
#X connect 86 0 83 0;
#X connect 87 0 89 1;
#X connect 88 0 89 0;
#X connect 89 0 90 0;
#X connect 90 0 142 0;
#X connect 91 0 88 0;
#X connect 92 0 94 1;
#X connect 93 0 94 0;
#X connect 94 0 95 0;
#X connect 95 0 142 0;
#X connect 96 0 93 0;
#X connect 97 0 99 1;
#X connect 98 0 99 0;
#X connect 99 0 100 0;
#X connect 100 0 142 0;
#X connect 101 0 98 0;
#X connect 102 0 104 1;
#X connect 103 0 104 0;
#X connect 104 0 105 0;
#X connect 105 0 142 0;
#X connect 106 0 103 0;
#X connect 107 0 109 1;
#X connect 108 0 109 0;
#X connect 109 0 110 0;
#X connect 110 0 142 0;
#X connect 111 0 108 0;
#X connect 112 0 114 1;
#X connect 113 0 114 0;
#X connect 114 0 115 0;
#X connect 115 0 142 0;
#X connect 116 0 113 0;
#X connect 117 0 213 0;
#X connect 126 0 127 0;
#X connect 127 0 128 0;
#X connect 128 0 141 0;
#X connect 129 0 130 0;
#X connect 130 0 128 1;
#X connect 131 0 132 0;
#X connect 132 0 133 0;
#X connect 133 0 137 0;
#X connect 134 0 135 0;
#X connect 135 0 137 0;
#X connect 136 0 134 0;
#X connect 137 0 129 0;
#X connect 138 0 139 0;
#X connect 139 0 129 0;
#X connect 140 0 126 0;
#X connect 141 0 117 0;
#X connect 143 0 140 0;
#X connect 145 0 148 1;
#X connect 146 0 147 0;
#X connect 147 0 148 0;
#X connect 148 0 149 0;
#X connect 149 0 209 0;
#X connect 150 0 152 1;
#X connect 151 0 152 0;
#X connect 152 0 153 0;
#X connect 153 0 209 0;
#X connect 154 0 151 0;
#X connect 155 0 157 1;
#X connect 156 0 157 0;
#X connect 157 0 158 0;
#X connect 158 0 209 0;
#X connect 159 0 156 0;
#X connect 160 0 162 1;
#X connect 161 0 162 0;
#X connect 162 0 163 0;
#X connect 163 0 209 0;
#X connect 164 0 161 0;
#X connect 165 0 167 1;
#X connect 166 0 167 0;
#X connect 167 0 168 0;
#X connect 168 0 209 0;
#X connect 169 0 166 0;
#X connect 170 0 172 1;
#X connect 171 0 172 0;
#X connect 172 0 173 0;
#X connect 173 0 209 0;
#X connect 174 0 171 0;
#X connect 175 0 177 1;
#X connect 176 0 177 0;
#X connect 177 0 178 0;
#X connect 178 0 209 0;
#X connect 179 0 176 0;
#X connect 180 0 182 1;
#X connect 181 0 182 0;
#X connect 182 0 183 0;
#X connect 183 0 209 0;
#X connect 184 0 181 0;
#X connect 185 0 214 0;
#X connect 194 0 195 0;
#X connect 194 1 203 0;
#X connect 195 0 196 0;
#X connect 196 0 197 0;
#X connect 197 0 198 0;
#X connect 198 0 206 0;
#X connect 199 0 198 1;
#X connect 200 0 201 0;
#X connect 201 0 202 0;
#X connect 202 0 206 0;
#X connect 203 0 200 0;
#X connect 204 0 207 0;
#X connect 205 0 202 1;
#X connect 206 0 208 0;
#X connect 207 0 205 0;
#X connect 208 0 185 0;
#X connect 210 0 194 0;
#X connect 212 0 75 0;
#X connect 213 0 75 0;
#X connect 214 0 75 0;
#X connect 215 0 1 0;
#X connect 216 0 212 1;
#X connect 217 0 213 1;
#X connect 218 0 214 1;
#X coords 0 -1 1 1 240 270 1 20 80;
